# Blender 4.4.1
# www.blender.org
mtllib tv.mtl
o Old_TV
v 0.975689 0.160139 -0.006640
v 0.975689 1.804249 -0.006640
v 1.007354 0.156682 -0.053688
v 1.007354 1.920697 -0.053688
v 0.864409 0.157253 0.669772
v 0.864409 1.556507 0.669772
v 0.718122 0.151245 1.252923
v 0.718122 1.306616 1.252923
v 1.007354 0.156682 -0.636245
v 1.007354 1.920697 -0.636245
v 0.487682 1.970590 -0.053688
v 0.487682 1.970590 -0.636245
v 0.480227 1.829285 -0.006640
v 0.479264 1.582180 0.669772
v 0.473455 0.156682 -0.636245
v 0.744949 1.651351 -0.573846
v 0.486558 1.690931 -0.577782
v 0.481507 0.456191 -0.576732
v 0.483953 1.351899 -0.628678
v 0.483953 0.650433 -0.628677
v 0.755096 0.456530 -0.577823
v 0.782052 1.351899 -0.580299
v 1.037658 1.355358 -0.053688
v 0.782052 0.650433 -0.580299
v 0.975689 1.331440 -0.006640
v -0.003051 1.351899 -0.628843
v 0.864409 1.165108 0.669772
v -0.003051 1.690931 -0.577640
v -0.003051 0.650433 -0.628842
v 1.037658 1.355358 -0.656093
v -0.003051 0.456191 -0.576652
v 1.037658 0.645815 -0.053688
v 0.975689 0.633003 -0.006640
v 0.864409 0.541625 0.669772
v 1.037658 0.645815 -0.656093
v -0.003051 1.582180 0.669772
v -0.003051 1.343050 1.252923
v -0.003051 0.156682 -0.636245
v -0.003051 1.970590 -0.053688
v -0.003051 1.970590 -0.636245
v -0.003051 0.456423 -0.636245
v 0.482049 0.456423 -0.636245
v -0.003051 1.691156 -0.636245
v 0.755509 0.456707 -0.642996
v 0.486989 1.691114 -0.642111
v 0.782322 1.352015 -0.649314
v 0.745436 1.651558 -0.642603
v 0.782357 0.650564 -0.647184
v 0.252061 1.915153 -0.034136
v 0.176102 1.854201 0.132711
v -0.003051 1.854201 0.132711
v -0.003051 1.915153 -0.034136
v 0.975689 -0.047769 -0.003585
v 1.007354 -0.051227 -0.050633
v 0.864409 -0.050656 0.672826
v 0.718122 -0.056664 1.255978
v 1.007354 -0.051227 -0.633190
v 0.480227 -0.047769 -0.003585
v 0.479264 -0.050656 0.672826
v 0.443181 -0.056664 1.255978
v 0.473455 -0.051227 -0.050633
v 0.473455 -0.051227 -0.633190
v -0.003051 -0.051227 -0.050633
v -0.003051 -0.051227 -0.633190
v -0.003051 -0.047769 -0.003585
v -0.003051 -0.050656 0.672826
v 0.975689 0.065968 -0.005113
v -0.003051 0.062510 -0.634717
v 1.007354 0.062510 -0.634717
v 1.007354 0.062510 -0.052161
v 0.473455 0.062510 -0.634717
v 0.997148 0.149851 -0.131548
v 0.970901 0.149851 -0.605420
v 0.473081 0.149851 -0.605420
v -0.003051 0.069341 -0.604114
v -0.003051 0.149851 -0.605420
v 0.970901 0.069341 -0.604114
v 0.473081 0.069341 -0.604114
v 0.997148 0.069341 -0.130242
v 0.718122 1.012524 1.252923
v 0.718122 0.453188 1.252923
v 0.444009 1.323022 1.252923
v 0.440962 0.151245 1.252923
v 0.440962 1.012524 1.252923
v 0.440962 0.453188 1.252923
v -0.003051 0.151245 1.252923
v -0.003051 1.012524 1.252923
v -0.003051 0.453188 1.252923
v 0.443181 -0.057177 1.219074
v -0.003051 -0.057177 1.219074
v -0.003051 0.150732 1.216019
v 0.440962 0.150732 1.216019
v -0.981790 0.160139 -0.006640
v -0.981790 1.804249 -0.006640
v -1.013454 0.156682 -0.053688
v -1.013454 1.920697 -0.053688
v -0.870508 0.157253 0.669772
v -0.870508 1.556507 0.669772
v -0.724221 0.151245 1.252923
v -0.724221 1.306616 1.252923
v -1.013454 0.156682 -0.636245
v -1.013454 1.920697 -0.636245
v -0.493782 1.970590 -0.053688
v -0.493782 1.970590 -0.636245
v -0.486327 1.829285 -0.006640
v -0.485364 1.582180 0.669772
v -0.479554 0.156682 -0.636245
v -0.751050 1.651351 -0.573846
v -0.492658 1.690931 -0.577782
v -0.487606 0.456191 -0.576732
v -0.490052 1.351899 -0.628678
v -0.490052 0.650433 -0.628677
v -0.761195 0.456530 -0.577823
v -0.788151 1.351899 -0.580299
v -1.043757 1.355358 -0.053688
v -0.788151 0.650433 -0.580299
v -0.981790 1.331440 -0.006640
v -0.870508 1.165108 0.669772
v -1.043757 1.355358 -0.656093
v -1.043757 0.645815 -0.053688
v -0.981790 0.633003 -0.006640
v -0.870508 0.541625 0.669772
v -1.043757 0.645815 -0.656093
v -0.488149 0.456423 -0.636245
v -0.761609 0.456707 -0.642996
v -0.493088 1.691114 -0.642111
v -0.788421 1.352015 -0.649314
v -0.751535 1.651558 -0.642603
v -0.788456 0.650564 -0.647184
v -0.258161 1.915153 -0.034136
v -0.182201 1.854201 0.132711
v -0.981790 -0.047769 -0.003585
v -1.013454 -0.051227 -0.050633
v -0.870508 -0.050656 0.672826
v -0.724221 -0.056664 1.255978
v -1.013454 -0.051227 -0.633190
v -0.486327 -0.047769 -0.003585
v -0.485364 -0.050656 0.672826
v -0.449281 -0.056664 1.255978
v -0.479554 -0.051227 -0.050633
v -0.479554 -0.051227 -0.633190
v -0.981790 0.065968 -0.005113
v -1.013454 0.062510 -0.634717
v -1.013454 0.062510 -0.052161
v -0.479554 0.062510 -0.634717
v -1.003248 0.149851 -0.131548
v -0.977000 0.149851 -0.605420
v -0.479180 0.149851 -0.605420
v -0.977000 0.069341 -0.604114
v -0.479180 0.069341 -0.604114
v -1.003248 0.069341 -0.130242
v -0.724221 1.012524 1.252923
v -0.724221 0.453188 1.252923
v -0.450108 1.323022 1.252923
v -0.447061 0.151245 1.252923
v -0.447061 1.012524 1.252923
v -0.447061 0.453188 1.252923
v -0.449281 -0.057177 1.219074
v -0.447061 0.150732 1.216019
vn 0.9995 -0.0309 -0.0000
vn 0.9981 -0.0618 -0.0000
vn 0.9995 -0.0305 -0.0000
vn 0.6581 0.0119 0.7528
vn 0.2080 0.2739 0.9390
vn 0.4623 0.1588 0.8724
vn 0.6417 0.0082 0.7669
vn -0.0000 -0.0134 -0.9999
vn 0.9867 -0.0000 0.1623
vn 0.9811 -0.0000 0.1933
vn 0.9792 -0.0000 0.2030
vn 0.8299 0.0082 0.5579
vn 0.8299 0.0083 0.5579
vn 0.8298 0.0075 0.5580
vn 0.7041 -0.0095 -0.7101
vn 0.7101 -0.0095 -0.7040
vn 0.0478 0.9989 -0.0000
vn 0.7219 0.6920 -0.0000
vn 0.7284 0.6852 -0.0000
vn 0.0449 0.9990 -0.0018
vn 0.0539 0.9363 0.3470
vn 0.1520 0.9238 0.3514
vn 0.0514 0.9180 0.3931
vn 0.0559 0.9258 0.3739
vn 0.0144 0.3290 0.9442
vn 0.0159 0.3290 0.9442
vn -0.0000 1.0000 -0.0000
vn 0.9792 0.0015 0.2028
vn 0.9699 0.0018 0.2433
vn 0.9699 0.0036 0.2433
vn 0.9791 0.0016 0.2036
vn 1.0000 -0.0000 -0.0000
vn 0.9699 -0.0000 0.2433
vn 0.9996 0.0268 -0.0000
vn 0.9996 0.0265 -0.0000
vn 0.7748 -0.0063 0.6322
vn 0.6525 -0.0098 0.7578
vn 0.6643 -0.0124 0.7473
vn 0.7713 -0.0072 0.6364
vn 0.9867 0.0012 0.1623
vn 0.0008 0.3296 0.9441
vn -0.0000 0.9062 0.4228
vn 0.0857 0.9190 0.3848
vn -0.0000 0.9173 0.3982
vn -0.0000 0.0105 -0.9999
vn 0.0008 0.0173 -0.9998
vn -0.0049 0.0148 -0.9999
vn -0.0000 1.0000 0.0039
vn -0.0005 1.0000 0.0036
vn -0.0006 1.0000 0.0036
vn -0.6688 0.7435 -0.0013
vn -0.6516 0.7586 -0.0011
vn -0.9977 0.0682 -0.0047
vn -0.9975 0.0707 -0.0025
vn -0.9981 -0.0617 -0.0050
vn -0.9981 -0.0610 -0.0050
vn -0.7155 -0.6986 -0.0061
vn -0.7221 -0.6918 -0.0061
vn -0.0738 -0.9973 -0.0051
vn -0.0760 -0.9971 -0.0036
vn -0.0000 -1.0000 -0.0033
vn -0.0236 0.0138 -0.9996
vn -0.0275 -0.0172 -0.9995
vn -0.0273 -0.0178 -0.9995
vn -0.0233 0.0144 -0.9996
vn -0.0157 -0.0233 -0.9996
vn -0.0163 -0.0240 -0.9996
vn -0.0041 -0.0072 -1.0000
vn -0.0043 -0.0075 -1.0000
vn -0.0069 0.0253 -0.9997
vn -0.0074 0.0255 -0.9996
vn -0.0000 -0.0000 -1.0000
vn 0.1417 0.9256 0.3511
vn -0.0000 0.9393 0.3431
vn -0.0000 0.3326 0.9431
vn -0.0000 -0.9993 0.0367
vn -0.0000 -0.9996 0.0282
vn -0.0000 -0.9991 0.0427
vn -0.0000 -0.9994 0.0345
vn 0.0020 -1.0000 -0.0065
vn 0.0004 -1.0000 -0.0077
vn -0.0000 -1.0000 -0.0000
vn -0.0000 -1.0000 -0.0081
vn 0.1611 -0.9816 -0.1026
vn 0.9871 -0.0985 -0.1261
vn 0.8132 -0.5784 -0.0642
vn 0.3995 -0.8242 -0.4013
vn 0.9867 0.0024 0.1624
vn 0.1618 0.9814 -0.1028
vn -0.0000 0.9760 -0.2179
vn 0.1391 0.9830 -0.1195
vn 0.9956 -0.0015 -0.0940
vn 0.6908 -0.0117 -0.7230
vn -0.0000 -0.6323 -0.7748
vn -0.0000 -0.0162 -0.9999
vn 0.2877 0.9577 -0.0071
vn -0.0000 -0.9763 -0.2164
vn 0.9915 -0.0021 -0.1298
vn 0.0386 0.9157 0.4001
vn 0.0582 0.9116 0.4069
vn -0.0000 0.9194 0.3934
vn -0.0000 -0.0000 1.0000
vn -0.0000 0.0049 1.0000
vn -0.0000 0.0073 1.0000
vn -0.0000 0.0147 0.9999
vn -0.9999 -0.0107 0.0001
vn -0.9999 -0.0106 0.0005
vn -0.0000 -0.9999 0.0139
vn 0.0013 -0.9999 -0.0102
vn 0.0009 -0.9999 -0.0108
vn -0.0000 -0.9999 -0.0119
vn -0.9995 -0.0309 -0.0000
vn -0.9995 -0.0305 -0.0000
vn -0.9981 -0.0618 -0.0000
vn -0.6581 0.0119 0.7528
vn -0.6417 0.0082 0.7669
vn -0.4623 0.1588 0.8724
vn -0.2080 0.2739 0.9390
vn -0.9867 -0.0000 0.1623
vn -0.9792 -0.0000 0.2030
vn -0.9811 -0.0000 0.1933
vn -0.8299 0.0082 0.5579
vn -0.8298 0.0075 0.5579
vn -0.8299 0.0083 0.5579
vn -0.7101 -0.0095 -0.7040
vn -0.7041 -0.0095 -0.7101
vn -0.0478 0.9989 -0.0000
vn -0.0496 0.9988 -0.0029
vn -0.7284 0.6852 -0.0000
vn -0.7219 0.6920 -0.0000
vn -0.0539 0.9363 0.3470
vn -0.0559 0.9258 0.3739
vn -0.0514 0.9180 0.3931
vn -0.1520 0.9238 0.3514
vn -0.0159 0.3290 0.9442
vn -0.0144 0.3290 0.9442
vn -0.9792 0.0015 0.2028
vn -0.9788 0.0030 0.2050
vn -0.9699 0.0036 0.2433
vn -0.9699 0.0018 0.2433
vn -1.0000 -0.0000 -0.0000
vn -0.9699 -0.0000 0.2433
vn -0.9996 0.0265 -0.0000
vn -0.9996 0.0268 -0.0000
vn -0.7748 -0.0063 0.6322
vn -0.7713 -0.0072 0.6364
vn -0.6644 -0.0124 0.7473
vn -0.6525 -0.0098 0.7577
vn -0.9867 0.0012 0.1623
vn -0.0008 0.3296 0.9441
vn -0.0857 0.9190 0.3848
vn 0.0007 0.0131 -0.9999
vn 0.0039 0.0186 -0.9998
vn 0.0006 1.0000 0.0036
vn 0.0005 1.0000 0.0036
vn 0.6688 0.7435 -0.0013
vn 0.6516 0.7586 -0.0011
vn 0.9977 0.0682 -0.0047
vn 0.9977 0.0671 -0.0031
vn 0.9981 -0.0617 -0.0050
vn 0.9981 -0.0610 -0.0050
vn 0.7221 -0.6918 -0.0061
vn 0.7155 -0.6986 -0.0061
vn 0.0780 -0.9969 -0.0065
vn 0.0760 -0.9971 -0.0036
vn 0.0236 0.0138 -0.9996
vn 0.0233 0.0144 -0.9996
vn 0.0273 -0.0178 -0.9995
vn 0.0275 -0.0172 -0.9995
vn 0.0163 -0.0240 -0.9996
vn 0.0157 -0.0233 -0.9996
vn 0.0041 -0.0072 -1.0000
vn 0.0043 -0.0075 -1.0000
vn 0.0069 0.0253 -0.9997
vn 0.0074 0.0255 -0.9996
vn -0.1417 0.9256 0.3511
vn -0.0004 -1.0000 -0.0077
vn -0.0008 -1.0000 -0.0083
vn -0.1611 -0.9816 -0.1026
vn -0.3995 -0.8242 -0.4013
vn -0.8132 -0.5784 -0.0642
vn -0.9871 -0.0985 -0.1261
vn -0.9867 0.0024 0.1624
vn -0.1618 0.9814 -0.1028
vn -0.1391 0.9830 -0.1195
vn -0.6908 -0.0117 -0.7230
vn -0.9956 -0.0015 -0.0940
vn -0.2877 0.9577 -0.0071
vn -0.9915 -0.0021 -0.1298
vn -0.0386 0.9157 0.4001
vn -0.0582 0.9116 0.4069
vn 0.9999 -0.0107 0.0001
vn -0.0009 -0.9999 -0.0108
vn -0.0013 -0.9999 -0.0102
vn 0.0651 0.0610 -0.9960
vn 0.0478 0.1230 -0.9913
vn 0.0998 0.0944 -0.9905
vn 0.1314 0.0454 -0.9903
vn 0.0611 -0.1012 -0.9930
vn 0.1251 -0.0710 -0.9896
vn -0.0000 -0.1306 -0.9914
vn -0.0000 0.0747 -0.9972
vn -0.0000 0.1489 -0.9889
vn 0.0817 -0.1445 -0.9861
vn 0.0406 -0.2027 -0.9784
vn -0.0000 -0.2589 -0.9659
vn -0.0651 0.0610 -0.9960
vn -0.1314 0.0454 -0.9903
vn -0.0998 0.0944 -0.9905
vn -0.0478 0.1230 -0.9913
vn -0.0611 -0.1012 -0.9930
vn -0.1247 -0.0671 -0.9899
vn -0.0817 -0.1445 -0.9861
vn -0.0406 -0.2027 -0.9784
vt 0.421678 0.211818
vt 0.422079 0.293087
vt 0.325597 0.293087
vt 0.321908 0.211819
vt 0.421678 0.093929
vt 0.422079 0.000000
vt 0.430291 0.019348
vt 0.430291 0.097904
vt 0.828398 0.821642
vt 0.828398 0.742472
vt 0.847297 0.742472
vt 0.847297 0.821642
vt 0.543791 0.060510
vt 0.543791 0.125540
vt 0.422332 0.308733
vt 0.430544 0.308159
vt 0.430797 0.327056
vt 0.422585 0.327630
vt 0.828398 0.653766
vt 0.847297 0.653766
vt 0.945445 0.577946
vt 0.946673 0.664288
vt 0.850951 0.664288
vt 0.849723 0.577946
vt 0.842475 0.328536
vt 0.843091 0.410855
vt 0.725865 0.411015
vt 0.725233 0.347024
vt 0.966667 0.328536
vt 0.974920 0.414878
vt 0.950815 0.416116
vt 0.946673 0.333797
vt 0.945445 0.496412
vt 0.849723 0.496412
vt 0.543791 0.292993
vt 0.642309 0.293992
vt 0.642815 0.328536
vt 0.544297 0.327536
vt 0.325850 0.308734
vt 0.326103 0.327631
vt 0.642309 0.243825
vt 0.543791 0.229130
vt 0.642309 0.150893
vt 0.321908 0.093930
vt 0.325597 0.000001
vt 0.430291 0.213947
vt 0.430291 0.292513
vt 0.965446 0.454026
vt 0.725865 0.491151
vt 0.820807 0.461385
vt 0.820807 0.491151
vt 0.321908 0.501447
vt 0.321908 0.419913
vt 0.368327 0.420028
vt 0.368332 0.501447
vt 0.900387 0.126033
vt 0.910185 0.126033
vt 0.910172 0.206541
vt 0.900387 0.206631
vt 0.899271 0.252065
vt 0.909984 0.251997
vt 0.249813 0.830555
vt 0.249648 0.862767
vt 0.238920 0.862781
vt 0.238800 0.830561
vt 0.238986 0.714014
vt 0.250351 0.714012
vt 0.238800 0.664265
vt 0.250117 0.664248
vt 0.899271 0.205778
vt 0.899202 0.248718
vt 0.887781 0.248637
vt 0.888585 0.205706
vt 0.898296 0.124359
vt 0.888561 0.124359
vt 0.424080 0.328536
vt 0.541960 0.328536
vt 0.541189 0.370953
vt 0.424649 0.370959
vt 0.623262 0.333571
vt 0.573404 0.375414
vt 0.623262 0.422276
vt 0.573465 0.420849
vt 0.330197 0.333571
vt 0.374898 0.377088
vt 0.623262 0.501447
vt 0.573465 0.501447
vt 0.849723 0.448765
vt 0.849723 0.491151
vt 0.974920 0.496412
vt 0.965446 0.496412
vt 0.217054 0.575542
vt 0.217054 0.664248
vt 0.209252 0.658987
vt 0.209252 0.576667
vt 0.096887 0.640498
vt 0.096887 0.576507
vt 0.313819 0.575542
vt 0.313819 0.664248
vt 0.096887 0.496371
vt 0.209252 0.496372
vt 0.217054 0.496372
vt 0.313819 0.496372
vt 0.096765 1.000000
vt 0.000000 1.000000
vt 0.012907 0.998304
vt 0.091619 0.993943
vt 0.096765 1.000000
vt 0.096765 0.911294
vt 0.101626 0.911232
vt 0.101626 0.993943
vt 0.096765 0.832124
vt 0.101626 0.832124
vt 0.331185 0.294223
vt 0.409319 0.294222
vt 0.409536 0.307598
vt 0.331401 0.307599
vt 0.874403 0.082712
vt 0.874403 -0.000000
vt 0.887781 -0.000000
vt 0.887781 0.082712
vt 0.874403 0.161820
vt 0.887781 0.161820
vt 0.192487 1.000000
vt 0.179489 0.998304
vt 0.096765 0.911294
vt 0.091619 0.911232
vt 0.096765 0.832124
vt 0.091619 0.832124
vt 0.250351 0.779783
vt 0.250351 0.664248
vt 0.260647 0.667098
vt 0.260647 0.784470
vt 0.642309 0.102030
vt 0.623666 0.416873
vt 0.623262 0.371330
vt 0.624159 0.491151
vt 0.871090 0.045543
vt 0.874403 0.119821
vt 0.819727 0.119821
vt 0.819727 0.046049
vt 0.868376 0.000000
vt 0.819727 0.000000
vt 0.727202 0.046049
vt 0.727202 0.000000
vt 0.727202 0.119821
vt 0.677254 0.046049
vt 0.677254 0.000000
vt 0.677254 0.119821
vt 0.642815 -0.000000
vt 0.642815 0.045681
vt 0.226927 0.812528
vt 0.192487 0.812159
vt 0.192487 0.738388
vt 0.226927 0.738388
vt 0.321861 0.510596
vt 0.321861 0.545143
vt 0.315780 0.545156
vt 0.315780 0.510608
vt 0.315780 0.476038
vt 0.315780 0.402267
vt 0.321908 0.402267
vt 0.321908 0.476038
vt -0.000000 0.616193
vt -0.000000 0.570512
vt 0.006128 0.570512
vt 0.006128 0.496371
vt 0.099259 0.116673
vt 0.000012 0.116673
vt 0.003942 0.035409
vt 0.099919 0.035409
vt 0.099247 0.234562
vt 0.108331 0.230596
vt 0.108323 0.309152
vt 0.099889 0.328496
vt 0.847297 0.900812
vt 0.828398 0.900812
vt 0.222165 0.202975
vt 0.222158 0.268005
vt 0.100172 0.019762
vt 0.100425 0.000865
vt 0.108857 0.001444
vt 0.108604 0.020341
vt 0.847297 0.989518
vt 0.828398 0.989518
vt 0.945445 0.414878
vt 0.849723 0.414878
vt 0.850951 0.328536
vt 0.946673 0.328536
vt 0.842475 0.653766
vt 0.725233 0.635277
vt 0.725865 0.571286
vt 0.843091 0.571446
vt 0.966667 0.664288
vt 0.946673 0.659027
vt 0.950815 0.576707
vt 0.974920 0.577946
vt 0.222182 0.035523
vt 0.222689 0.000979
vt 0.321908 -0.000000
vt 0.321402 0.034544
vt 0.004195 0.019763
vt 0.004449 0.000865
vt 0.321396 0.084711
vt 0.321387 0.177643
vt 0.222176 0.099385
vt 0.003912 0.328496
vt -0.000000 0.234562
vt 0.108342 0.114553
vt 0.108350 0.035987
vt 0.965446 0.538798
vt 0.820807 0.520916
vt 0.368327 0.582865
vt 0.321908 0.582981
vt 0.900387 0.045435
vt 0.910172 0.045525
vt 0.899271 0.000000
vt 0.909984 0.000069
vt 0.227588 0.830561
vt 0.238662 0.830553
vt 0.238800 0.862769
vt 0.228011 0.862768
vt 0.238354 0.714007
vt 0.226927 0.714018
vt 0.227419 0.664248
vt 0.238800 0.664252
vt 0.899271 0.042940
vt 0.888585 0.043012
vt 0.887781 0.000081
vt 0.899202 -0.000000
vt 0.424080 0.674358
vt 0.424649 0.631934
vt 0.541189 0.631940
vt 0.541960 0.674358
vt 0.573404 0.627479
vt 0.623262 0.669323
vt 0.623262 0.580617
vt 0.573465 0.582045
vt 0.330197 0.669323
vt 0.374898 0.625806
vt 0.849723 0.533537
vt 0.217054 0.417202
vt 0.209252 0.416076
vt 0.209252 0.333756
vt 0.217054 0.328496
vt 0.096887 0.416236
vt 0.096887 0.352246
vt 0.313819 0.328496
vt 0.313819 0.417202
vt 0.096765 0.664248
vt 0.091619 0.670304
vt 0.012907 0.665943
vt 0.000000 0.664248
vt 0.096765 0.664248
vt 0.101626 0.670304
vt 0.101626 0.753016
vt 0.096765 0.752954
vt 0.009804 0.034279
vt 0.010020 0.020902
vt 0.087527 0.020899
vt 0.087311 0.034275
vt 0.874403 0.240927
vt 0.887781 0.240927
vt 0.887781 0.323639
vt 0.874403 0.323639
vt 0.192487 0.664248
vt 0.179489 0.665943
vt 0.096765 0.752954
vt 0.091619 0.753016
vt 0.270942 0.779783
vt 0.270942 0.664248
vt 0.321382 0.226506
vt 0.623666 0.565428
vt 0.623262 0.610971
vt 0.871090 0.194099
vt 0.819727 0.193592
vt 0.868376 0.239642
vt 0.819727 0.239642
vt 0.727202 0.239642
vt 0.727202 0.193592
vt 0.677254 0.193592
vt 0.677254 0.239642
vt 0.642815 0.239642
vt 0.642815 0.193961
vt 0.226927 0.664248
vt 0.192487 0.664617
vt 0.315780 0.476038
vt 0.321893 0.476048
vt 0.321893 0.510596
vt 0.315780 0.510586
vt 0.315780 0.328496
vt 0.321908 0.328496
vt 0.006128 0.422231
vt 0.000000 0.422231
vt 0.000000 0.376551
vt 0.195020 0.719165
vt 0.190835 0.988563
vt 0.027709 0.954504
vt 0.005134 0.718143
vt 0.195688 0.167096
vt 0.005998 0.165834
vt 0.501281 0.167113
vt 0.501281 0.720433
vt 0.501281 0.991288
vt 0.023566 0.012750
vt 0.196257 0.008861
vt 0.501282 0.008712
vt 0.807541 0.719165
vt 0.997427 0.718143
vt 0.974854 0.954504
vt 0.811727 0.988563
vt 0.806873 0.167096
vt 0.996563 0.165834
vt 0.978995 0.012750
vt 0.806304 0.008861
s 1
usemtl Material.004
f 32/1/1 3/2/2 9/3/2 35/4/3
f 23/5/4 4/6/5 2/7/6 25/8/7
f 68/9/8 71/10/8 62/11/8 64/12/8
f 25/8/9 2/7/9 6/13/10 27/14/11
f 70/15/12 67/16/13 53/17/14 54/18/14
f 71/10/8 69/19/15 57/20/16 62/11/8
f 11/21/17 4/22/18 10/23/19 12/24/20
f 2/25/21 13/26/22 14/27/23 6/28/24
f 4/29/5 11/30/25 13/31/26 2/32/6
f 39/33/27 11/21/17 12/24/20 40/34/27
f 5/35/28 7/36/29 56/37/30 55/38/31
f 69/39/15 70/15/32 54/18/32 57/40/16
f 81/41/33 34/42/11 27/14/11 80/43/33
f 4/6/18 23/5/34 30/44/35 10/45/19
f 27/14/11 34/42/11 33/46/9 25/8/9
f 3/2/36 32/1/37 33/46/38 1/47/39
f 1/47/40 33/46/9 34/42/11 5/35/28
f 13/31/26 11/30/25 49/48/41
f 36/49/42 14/27/23 50/50/43 51/51/44
f 40/52/45 12/53/46 45/54/47 43/55/45
f 41/56/48 31/57/48 18/58/49 42/59/50
f 44/60/51 42/59/50 18/58/49 21/61/52
f 48/62/53 44/63/51 21/64/52 24/65/54
f 22/66/55 46/67/56 48/62/53 24/65/54
f 46/67/56 22/66/55 16/68/57 47/69/58
f 45/70/59 47/71/58 16/72/57 17/73/60
f 43/74/61 45/70/59 17/73/60 28/75/61
f 30/76/62 35/77/63 48/78/64 46/79/65
f 35/77/63 9/80/66 44/81/67 48/78/64
f 15/82/68 42/83/69 44/81/67 9/80/66
f 10/84/70 30/76/62 46/79/65 47/85/71
f 15/82/68 38/86/72 41/87/72 42/83/69
f 10/84/70 47/85/71 45/54/47 12/53/46
f 49/88/73 52/89/74 51/51/44 50/50/43
f 39/90/75 52/91/75 49/48/41 11/30/25
f 14/27/23 13/26/22 49/88/73 50/50/43
f 61/92/76 54/93/77 53/94/78 58/95/79
f 53/94/78 55/96/80 59/97/81 58/95/79
f 54/93/77 61/92/76 62/98/82 57/99/82
f 66/100/83 65/101/79 58/95/79 59/97/81
f 63/102/76 61/92/76 58/95/79 65/101/79
f 61/92/76 63/102/76 64/103/82 62/98/82
f 9/104/84 3/105/85 72/106/86 73/107/87
f 5/35/28 55/38/31 53/17/88 67/16/88 1/47/40
f 69/108/89 71/109/90 78/110/90 77/111/91
f 3/2/36 1/47/39 67/16/13 70/15/12
f 71/109/90 68/112/90 75/113/90 78/110/90
f 73/114/87 72/115/86 79/116/92 77/117/93
f 74/118/94 73/119/87 77/120/93 78/121/95
f 76/122/94 74/118/94 78/121/95 75/123/95
f 70/124/96 69/108/89 77/111/91 79/125/96
f 15/126/97 9/104/84 73/107/87 74/127/94
f 3/2/85 70/15/98 79/116/92 72/115/86
f 38/128/97 15/126/97 74/127/94 76/129/94
f 81/41/33 7/36/29 5/35/28 34/42/11
f 25/130/7 33/131/38 32/132/37 23/133/4
f 35/4/3 30/44/35 23/5/34 32/1/1
f 27/14/11 6/13/10 8/134/33 80/43/33
f 82/135/99 8/136/100 6/28/24 14/27/23
f 37/137/101 82/135/99 14/27/23 36/49/42
f 82/138/102 37/139/102 87/140/102 84/141/102
f 8/142/102 82/138/102 84/141/102 80/143/102
f 84/141/102 85/144/102 81/145/102 80/143/102
f 85/144/102 84/141/102 87/140/102 88/146/102
f 83/147/103 7/148/104 81/145/102 85/144/102
f 83/147/103 85/144/102 88/146/102 86/149/102
f 56/150/105 7/148/104 83/147/103 60/151/105
f 89/152/105 92/153/105 91/154/105 90/155/105
f 60/156/106 83/157/106 92/158/106 89/159/107
f 83/160/108 86/161/108 91/162/108 92/163/108
f 59/97/81 55/96/80 56/164/109 60/165/109 89/166/110
f 66/100/83 59/97/81 89/166/110 90/167/111
f 120/168/112 123/169/113 101/170/114 95/171/114
f 115/172/115 117/173/116 94/174/117 96/175/118
f 68/9/8 64/12/8 141/176/8 145/177/8
f 117/173/119 118/178/120 98/179/121 94/174/119
f 144/180/122 133/181/123 132/182/123 142/183/124
f 145/177/8 141/176/8 136/184/125 143/185/126
f 103/186/127 104/187/128 102/188/129 96/189/130
f 94/190/131 98/191/132 106/192/133 105/193/134
f 96/194/118 94/195/117 105/196/135 103/197/136
f 39/33/27 40/34/27 104/187/128 103/186/127
f 97/198/137 134/199/138 135/200/139 99/201/140
f 143/202/126 136/203/125 133/181/141 144/180/141
f 153/204/142 152/205/142 118/178/120 122/206/120
f 96/175/130 102/207/129 119/208/143 115/172/144
f 118/178/120 117/173/119 121/209/119 122/206/120
f 95/171/145 93/210/146 121/209/147 120/168/148
f 93/210/149 97/198/137 122/206/120 121/209/119
f 105/196/135 130/211/150 103/197/136
f 36/49/42 51/51/44 131/212/151 106/192/133
f 40/52/45 43/55/45 126/213/152 104/214/153
f 41/56/48 124/215/154 110/216/155 31/57/48
f 125/217/156 113/218/157 110/216/155 124/215/154
f 129/219/158 116/220/159 113/221/157 125/222/156
f 114/223/160 116/220/159 129/219/158 127/224/161
f 127/224/161 128/225/162 108/226/163 114/223/160
f 126/227/164 109/228/165 108/229/163 128/230/162
f 43/74/61 28/75/61 109/228/165 126/227/164
f 119/231/166 127/232/167 129/233/168 123/234/169
f 123/234/169 129/233/168 125/235/170 101/236/171
f 107/237/172 101/236/171 125/235/170 124/238/173
f 102/239/174 128/240/175 127/232/167 119/231/166
f 107/237/172 124/238/173 41/87/72 38/86/72
f 102/239/174 104/214/153 126/213/152 128/240/175
f 130/241/176 131/212/151 51/51/44 52/89/74
f 39/90/75 103/197/136 130/211/150 52/91/75
f 106/192/133 131/212/151 130/241/176 105/193/134
f 140/242/76 137/243/79 132/244/78 133/245/77
f 132/244/78 137/243/79 138/246/177 134/247/178
f 133/245/77 136/248/82 141/249/82 140/242/76
f 66/100/83 138/246/177 137/243/79 65/101/79
f 63/102/76 65/101/79 137/243/79 140/242/76
f 140/242/76 141/249/82 64/103/82 63/102/76
f 101/250/179 147/251/180 146/252/181 95/253/182
f 97/198/137 93/210/149 142/183/183 132/182/183 134/199/138
f 143/254/184 149/255/185 150/256/90 145/257/90
f 95/171/145 144/180/122 142/183/124 93/210/146
f 145/257/90 150/256/90 75/113/90 68/112/90
f 147/258/180 149/259/186 151/260/187 146/261/181
f 148/262/94 150/263/95 149/264/186 147/265/180
f 76/122/94 75/123/95 150/263/95 148/262/94
f 144/266/188 151/267/188 149/255/185 143/254/184
f 107/268/97 148/269/94 147/251/180 101/250/179
f 95/171/182 146/261/181 151/260/187 144/180/189
f 38/128/97 76/129/94 148/269/94 107/268/97
f 153/204/142 122/206/120 97/198/137 99/201/140
f 117/270/116 115/133/115 120/132/148 121/271/147
f 123/169/113 120/168/112 115/172/144 119/208/143
f 118/178/120 152/205/142 100/272/142 98/179/121
f 154/273/190 106/192/133 98/191/132 100/274/191
f 37/137/101 36/49/42 106/192/133 154/273/190
f 154/275/102 156/276/102 87/140/102 37/139/102
f 100/277/102 152/278/102 156/276/102 154/275/102
f 156/276/102 152/278/102 153/279/102 157/280/102
f 157/280/102 88/146/102 87/140/102 156/276/102
f 155/281/103 157/280/102 153/279/102 99/282/104
f 155/281/103 86/149/102 88/146/102 157/280/102
f 135/283/105 139/284/105 155/281/103 99/282/104
f 158/285/105 90/155/105 91/154/105 159/286/105
f 139/287/192 158/288/192 159/289/192 155/290/192
f 155/291/108 159/292/108 91/162/108 86/161/108
f 138/246/177 158/293/193 139/294/194 135/295/194 134/247/178
f 66/100/83 90/167/111 158/293/193 138/246/177
usemtl Material.005
f 19/296/195 17/297/196 16/298/197 22/299/198
f 20/300/199 19/296/195 22/299/198 24/301/200
f 29/302/201 26/303/202 19/296/195 20/300/199
f 26/303/202 28/304/203 17/297/196 19/296/195
f 21/305/204 18/306/205 20/300/199 24/301/200
f 18/306/205 31/307/206 29/302/201 20/300/199
f 111/308/207 114/309/208 108/310/209 109/311/210
f 112/312/211 116/313/212 114/309/208 111/308/207
f 29/302/201 112/312/211 111/308/207 26/303/202
f 26/303/202 111/308/207 109/311/210 28/304/203
f 113/314/213 116/313/212 112/312/211 110/315/214
f 110/315/214 112/312/211 29/302/201 31/307/206
