# Blender 4.4.1
# www.blender.org
mtllib carbon.mtl
o Cube
v -0.743569 -0.319899 0.395929
v -0.799314 1.050171 0.395929
v -0.743569 -0.319899 -0.395929
v -0.799314 1.050171 -0.395929
v 0.921956 -0.816038 0.395929
v 1.000000 1.000000 0.395929
v 0.921956 -0.816038 -0.395929
v 1.000000 1.000000 -0.395929
v 0.000000 -1.000000 -0.395929
v 0.323327 1.094768 -0.395929
v 0.000000 -1.000000 0.395929
v 0.323327 1.094768 0.395929
v -1.033448 0.418095 0.395929
v -1.033448 0.418095 -0.395929
v 1.668952 0.000000 -0.395929
v 1.668952 0.000000 0.395929
v 0.000000 0.000000 0.395929
v 0.000000 0.000000 -0.395929
vn -0.9377 0.3474 -0.0000
vn -0.0000 -0.0000 -1.0000
vn 0.8312 0.5560 -0.0000
vn -0.0000 -0.0000 1.0000
vn 0.1957 -0.9807 -0.0000
vn -0.0397 0.9992 -0.0000
vn 0.1387 0.9903 -0.0000
vn -0.6749 -0.7379 -0.0000
vn 0.7376 -0.6752 -0.0000
vn -0.9308 -0.3656 -0.0000
vt 0.500000 0.000000
vt 0.625000 0.000000
vt 0.625000 0.250000
vt 0.500000 0.250000
vt 0.500000 0.375000
vt 0.625000 0.375000
vt 0.625000 0.500000
vt 0.500000 0.500000
vt 0.625000 0.750000
vt 0.500000 0.750000
vt 0.500000 0.875000
vt 0.625000 0.875000
vt 0.625000 1.000000
vt 0.500000 1.000000
vt 0.250000 0.500000
vt 0.375000 0.500000
vt 0.375000 0.750000
vt 0.250000 0.750000
vt 0.750000 0.500000
vt 0.875000 0.500000
vt 0.875000 0.750000
vt 0.750000 0.750000
vt 0.125000 0.500000
vt 0.125000 0.750000
vt 0.375000 0.250000
vt 0.375000 0.375000
vt 0.375000 0.875000
vt 0.375000 1.000000
vt 0.375000 0.000000
s 0
f 13/1/1 2/2/1 4/3/1 14/4/1
f 18/5/2 10/6/2 8/7/2 15/8/2
f 15/8/3 8/7/3 6/9/3 16/10/3
f 17/11/4 12/12/4 2/13/4 13/14/4
f 9/15/5 7/16/5 5/17/5 11/18/5
f 10/19/6 4/20/6 2/21/6 12/22/6
f 8/7/7 10/19/7 12/22/7 6/9/7
f 3/23/8 9/15/8 11/18/8 1/24/8
f 16/10/4 6/9/4 12/12/4 17/11/4
f 14/4/2 4/3/2 10/6/2 18/5/2
f 3/25/2 14/4/2 18/5/2 9/26/2
f 5/17/4 16/10/4 17/11/4 11/27/4
f 11/27/4 17/11/4 13/14/4 1/28/4
f 7/16/9 15/8/9 16/10/9 5/17/9
f 9/26/2 18/5/2 15/8/2 7/16/2
f 1/29/10 13/1/10 14/4/10 3/25/10
o Cube.001
v -3.401983 -1.907991 0.395929
v -2.828914 -0.350614 0.395929
v -3.401983 -1.907991 -0.395929
v -2.828914 -0.350614 -0.395930
v -1.207987 -1.935863 0.395929
v -1.344007 -0.139894 0.395929
v -1.207987 -1.935863 -0.395929
v -1.344007 -0.139894 -0.395929
v -2.250354 -1.879003 -0.395929
v -2.020680 -0.045126 -0.395929
v -2.250354 -1.879003 0.395929
v -2.020680 -0.045126 0.395929
v -3.798894 -0.614767 0.395929
v -3.798894 -0.614767 -0.395929
v -1.042979 -0.939208 -0.395929
v -1.042979 -0.939208 0.395929
v -2.344007 -1.139894 0.395929
v -2.344007 -1.139894 -0.395929
vn -0.2628 0.9649 -0.0000
vn -0.0000 -0.0000 -1.0000
vn 0.9358 0.3524 -0.0000
vn -0.0000 -0.0000 1.0000
vn -0.0545 -0.9985 -0.0000
vn -0.3536 0.9354 -0.0000
vn 0.1387 0.9903 -0.0000
vn 0.0252 -0.9997 -0.0000
vn 0.9866 -0.1633 -0.0000
vn -0.9560 -0.2934 -0.0000
vt 0.500000 0.000000
vt 0.625000 0.000000
vt 0.625000 0.250000
vt 0.500000 0.250000
vt 0.500000 0.375000
vt 0.625000 0.375000
vt 0.625000 0.500000
vt 0.500000 0.500000
vt 0.625000 0.750000
vt 0.500000 0.750000
vt 0.500000 0.875000
vt 0.625000 0.875000
vt 0.625000 1.000000
vt 0.500000 1.000000
vt 0.250000 0.500000
vt 0.375000 0.500000
vt 0.375000 0.750000
vt 0.250000 0.750000
vt 0.750000 0.500000
vt 0.875000 0.500000
vt 0.875000 0.750000
vt 0.750000 0.750000
vt 0.125000 0.500000
vt 0.125000 0.750000
vt 0.375000 0.250000
vt 0.375000 0.375000
vt 0.375000 0.875000
vt 0.375000 1.000000
vt 0.375000 0.000000
s 0
f 31/30/11 20/31/11 22/32/11 32/33/11
f 36/34/12 28/35/12 26/36/12 33/37/12
f 33/37/13 26/36/13 24/38/13 34/39/13
f 35/40/14 30/41/14 20/42/14 31/43/14
f 27/44/15 25/45/15 23/46/15 29/47/15
f 28/48/16 22/49/16 20/50/16 30/51/16
f 26/36/17 28/48/17 30/51/17 24/38/17
f 21/52/18 27/44/18 29/47/18 19/53/18
f 34/39/14 24/38/14 30/41/14 35/40/14
f 32/33/12 22/32/12 28/35/12 36/34/12
f 21/54/12 32/33/12 36/34/12 27/55/12
f 23/46/14 34/39/14 35/40/14 29/56/14
f 29/56/14 35/40/14 31/43/14 19/57/14
f 25/45/19 33/37/19 34/39/19 23/46/19
f 27/55/12 36/34/12 33/37/12 25/45/12
f 19/58/20 31/30/20 32/33/20 21/54/20
o Cube.002
v 1.498146 -1.799340 0.395929
v 1.553892 -3.169411 0.395929
v 1.498146 -1.799340 -0.395929
v 1.553892 -3.169410 -0.395930
v -0.167378 -1.303200 0.395929
v -0.245423 -3.119239 0.395929
v -0.167378 -1.303200 -0.395929
v -0.245423 -3.119238 -0.395930
v 0.754578 -1.119239 -0.395929
v 0.431251 -3.214007 -0.395930
v 0.754578 -1.119239 0.395929
v 0.431251 -3.214007 0.395929
v 1.788025 -2.537334 0.395929
v 1.788025 -2.537334 -0.395930
v -0.914374 -2.119238 -0.395930
v -0.914374 -2.119238 0.395929
v 0.754578 -2.119239 0.395929
v 0.754578 -2.119239 -0.395930
vn 0.9377 -0.3474 -0.0000
vn -0.0000 -0.0000 -1.0000
vn -0.8312 -0.5560 -0.0000
vn -0.0000 -0.0000 1.0000
vn -0.1957 0.9807 -0.0000
vn 0.0397 -0.9992 -0.0000
vn -0.1387 -0.9903 -0.0000
vn 0.6749 0.7379 -0.0000
vn -0.7376 0.6752 -0.0000
vn 0.9308 0.3656 -0.0000
vt 0.500000 0.000000
vt 0.625000 0.000000
vt 0.625000 0.250000
vt 0.500000 0.250000
vt 0.500000 0.375000
vt 0.625000 0.375000
vt 0.625000 0.500000
vt 0.500000 0.500000
vt 0.625000 0.750000
vt 0.500000 0.750000
vt 0.500000 0.875000
vt 0.625000 0.875000
vt 0.625000 1.000000
vt 0.500000 1.000000
vt 0.250000 0.500000
vt 0.375000 0.500000
vt 0.375000 0.750000
vt 0.250000 0.750000
vt 0.750000 0.500000
vt 0.875000 0.500000
vt 0.875000 0.750000
vt 0.750000 0.750000
vt 0.125000 0.500000
vt 0.125000 0.750000
vt 0.375000 0.250000
vt 0.375000 0.375000
vt 0.375000 0.875000
vt 0.375000 1.000000
vt 0.375000 0.000000
s 0
f 49/59/21 38/60/21 40/61/21 50/62/21
f 54/63/22 46/64/22 44/65/22 51/66/22
f 51/66/23 44/65/23 42/67/23 52/68/23
f 53/69/24 48/70/24 38/71/24 49/72/24
f 45/73/25 43/74/25 41/75/25 47/76/25
f 46/77/26 40/78/26 38/79/26 48/80/26
f 44/65/27 46/77/27 48/80/27 42/67/27
f 39/81/28 45/73/28 47/76/28 37/82/28
f 52/68/24 42/67/24 48/70/24 53/69/24
f 50/62/22 40/61/22 46/64/22 54/63/22
f 39/83/22 50/62/22 54/63/22 45/84/22
f 41/75/24 52/68/24 53/69/24 47/85/24
f 47/85/24 53/69/24 49/72/24 37/86/24
f 43/74/29 51/66/29 52/68/29 41/75/29
f 45/84/22 54/63/22 51/66/22 43/74/22
f 37/87/30 49/59/30 50/62/30 39/83/30
o Cube.003
v 3.674023 -0.664633 0.395930
v 2.116647 -0.091563 0.395929
v 3.674024 -0.664633 -0.395929
v 2.116647 -0.091563 -0.395929
v 3.701897 1.529363 0.395930
v 1.905928 1.393344 0.395929
v 3.701898 1.529363 -0.395929
v 1.905928 1.393344 -0.395929
v 3.645036 0.486996 -0.395929
v 1.811159 0.716671 -0.395929
v 3.645036 0.486996 0.395930
v 1.811159 0.716671 0.395929
v 2.380799 -1.061543 0.395929
v 2.380800 -1.061543 -0.395929
v 2.705242 1.694372 -0.395929
v 2.705242 1.694372 0.395929
v 2.905927 0.393344 0.395929
v 2.905927 0.393344 -0.395929
vn -0.9649 -0.2628 -0.0000
vn -0.0000 -0.0000 -1.0000
vn -0.3524 0.9358 -0.0000
vn -0.0000 -0.0000 1.0000
vn 0.9985 -0.0545 -0.0000
vn -0.9354 -0.3536 -0.0000
vn -0.9903 0.1387 -0.0000
vn 0.9997 0.0252 -0.0000
vn 0.1633 0.9866 -0.0000
vn 0.2934 -0.9560 -0.0000
vt 0.500000 0.000000
vt 0.625000 0.000000
vt 0.625000 0.250000
vt 0.500000 0.250000
vt 0.500000 0.375000
vt 0.625000 0.375000
vt 0.625000 0.500000
vt 0.500000 0.500000
vt 0.625000 0.750000
vt 0.500000 0.750000
vt 0.500000 0.875000
vt 0.625000 0.875000
vt 0.625000 1.000000
vt 0.500000 1.000000
vt 0.250000 0.500000
vt 0.375000 0.500000
vt 0.375000 0.750000
vt 0.250000 0.750000
vt 0.750000 0.500000
vt 0.875000 0.500000
vt 0.875000 0.750000
vt 0.750000 0.750000
vt 0.125000 0.500000
vt 0.125000 0.750000
vt 0.375000 0.250000
vt 0.375000 0.375000
vt 0.375000 0.875000
vt 0.375000 1.000000
vt 0.375000 0.000000
s 0
f 67/88/31 56/89/31 58/90/31 68/91/31
f 72/92/32 64/93/32 62/94/32 69/95/32
f 69/95/33 62/94/33 60/96/33 70/97/33
f 71/98/34 66/99/34 56/100/34 67/101/34
f 63/102/35 61/103/35 59/104/35 65/105/35
f 64/106/36 58/107/36 56/108/36 66/109/36
f 62/94/37 64/106/37 66/109/37 60/96/37
f 57/110/38 63/102/38 65/105/38 55/111/38
f 70/97/34 60/96/34 66/99/34 71/98/34
f 68/91/32 58/90/32 64/93/32 72/92/32
f 57/112/32 68/91/32 72/92/32 63/113/32
f 59/104/34 70/97/34 71/98/34 65/114/34
f 65/114/34 71/98/34 67/101/34 55/115/34
f 61/103/39 69/95/39 70/97/39 59/104/39
f 63/113/32 72/92/32 69/95/32 61/103/32
f 55/116/40 67/88/40 68/91/40 57/112/40
o Cube.004
v 0.102713 2.863254 0.395930
v -0.470356 1.305877 0.395929
v 0.102713 2.863254 -0.395929
v -0.470356 1.305877 -0.395929
v -2.091283 2.891126 0.395930
v -1.955263 1.095156 0.395929
v -2.091283 2.891126 -0.395929
v -1.955263 1.095157 -0.395929
v -1.048916 2.834266 -0.395929
v -1.278589 1.000389 -0.395929
v -1.048916 2.834266 0.395930
v -1.278589 1.000389 0.395929
v 0.499624 1.570030 0.395929
v 0.499624 1.570030 -0.395929
v -2.256291 1.894471 -0.395929
v -2.256291 1.894471 0.395930
v -0.955263 2.095157 0.395930
v -0.955263 2.095157 -0.395929
vn 0.2628 -0.9649 -0.0000
vn -0.0000 -0.0000 -1.0000
vn -0.9358 -0.3524 -0.0000
vn -0.0000 -0.0000 1.0000
vn 0.0545 0.9985 -0.0000
vn 0.3536 -0.9354 -0.0000
vn -0.1387 -0.9903 -0.0000
vn -0.0252 0.9997 -0.0000
vn -0.9866 0.1633 -0.0000
vn 0.9560 0.2934 -0.0000
vt 0.500000 0.000000
vt 0.625000 0.000000
vt 0.625000 0.250000
vt 0.500000 0.250000
vt 0.500000 0.375000
vt 0.625000 0.375000
vt 0.625000 0.500000
vt 0.500000 0.500000
vt 0.625000 0.750000
vt 0.500000 0.750000
vt 0.500000 0.875000
vt 0.625000 0.875000
vt 0.625000 1.000000
vt 0.500000 1.000000
vt 0.250000 0.500000
vt 0.375000 0.500000
vt 0.375000 0.750000
vt 0.250000 0.750000
vt 0.750000 0.500000
vt 0.875000 0.500000
vt 0.875000 0.750000
vt 0.750000 0.750000
vt 0.125000 0.500000
vt 0.125000 0.750000
vt 0.375000 0.250000
vt 0.375000 0.375000
vt 0.375000 0.875000
vt 0.375000 1.000000
vt 0.375000 0.000000
s 0
f 85/117/41 74/118/41 76/119/41 86/120/41
f 90/121/42 82/122/42 80/123/42 87/124/42
f 87/124/43 80/123/43 78/125/43 88/126/43
f 89/127/44 84/128/44 74/129/44 85/130/44
f 81/131/45 79/132/45 77/133/45 83/134/45
f 82/135/46 76/136/46 74/137/46 84/138/46
f 80/123/47 82/135/47 84/138/47 78/125/47
f 75/139/48 81/131/48 83/134/48 73/140/48
f 88/126/44 78/125/44 84/128/44 89/127/44
f 86/120/42 76/119/42 82/122/42 90/121/42
f 75/141/42 86/120/42 90/121/42 81/142/42
f 77/133/44 88/126/44 89/127/44 83/143/44
f 83/143/44 89/127/44 85/130/44 73/144/44
f 79/132/49 87/124/49 88/126/49 77/133/49
f 81/142/42 90/121/42 87/124/42 79/132/42
f 73/145/50 85/117/50 86/120/50 75/141/50
