# Blender 4.4.1
# www.blender.org
mtllib vault_door.mtl
o Cylinder
v 0.000000 1.000000 -0.102229
v 0.000000 0.815744 0.016854
v 0.500000 0.866025 -0.102229
v 0.407872 0.706455 0.016854
v 0.866025 0.500000 -0.102229
v 0.706455 0.407872 0.016854
v 1.000000 0.000000 -0.102229
v 0.815744 -0.000000 0.016854
v 0.866025 -0.500000 -0.102229
v 0.706455 -0.407872 0.016854
v 0.500000 -0.866025 -0.102229
v 0.407872 -0.706455 0.016854
v 0.000000 -1.000000 -0.102229
v 0.000000 -0.815744 0.016854
v -0.500000 -0.866025 -0.102229
v -0.407872 -0.706455 0.016854
v -0.866025 -0.500000 -0.102229
v -0.706455 -0.407872 0.016854
v -1.000000 0.000000 -0.102229
v -0.815744 -0.000000 0.016854
v -0.866025 0.500000 -0.102229
v -0.706455 0.407872 0.016854
v -0.500000 0.866025 -0.102229
v -0.407872 0.706455 0.016854
v 0.279423 0.483976 0.129815
v 0.000000 0.558847 0.129815
v 0.483976 0.279424 0.129815
v 0.558847 0.000000 0.129814
v 0.483976 -0.279423 0.129814
v 0.279423 -0.483975 0.129814
v 0.000000 -0.558847 0.129814
v -0.279423 -0.483975 0.129814
v -0.483975 -0.279423 0.129814
v -0.558847 0.000000 0.129814
v -0.483975 0.279424 0.129815
v -0.279423 0.483976 0.129815
v -0.000000 1.000000 -0.391754
v 0.500000 0.866025 -0.391754
v 0.866025 0.500000 -0.391754
v 1.000000 0.000000 -0.391754
v 0.866025 -0.500000 -0.391754
v 0.500000 -0.866025 -0.391754
v -0.000000 -1.000000 -0.391754
v -0.500000 -0.866025 -0.391754
v -0.866025 -0.500000 -0.391754
v -1.000000 0.000000 -0.391754
v -0.866025 0.500000 -0.391754
v -0.500000 0.866025 -0.391754
v 0.000000 1.000000 -0.005564
v 0.500000 0.866025 -0.005564
v 0.407872 0.706455 0.113519
v 0.000000 0.815744 0.113519
v 0.866025 0.500000 -0.005564
v 0.706455 0.407872 0.113519
v 1.000000 0.000000 -0.005564
v 0.815744 -0.000000 0.113519
v 0.866025 -0.500000 -0.005564
v 0.706455 -0.407872 0.113519
v 0.500000 -0.866025 -0.005564
v 0.407872 -0.706455 0.113519
v 0.000000 -1.000000 -0.005564
v 0.000000 -0.815744 0.113519
v -0.500000 -0.866025 -0.005564
v -0.407872 -0.706455 0.113519
v -0.866025 -0.500000 -0.005564
v -0.706455 -0.407872 0.113519
v -1.000000 0.000000 -0.005564
v -0.815744 -0.000000 0.113519
v -0.866025 0.500000 -0.005564
v -0.706455 0.407872 0.113519
v -0.500000 0.866025 -0.005564
v -0.407872 0.706455 0.113519
vn 0.8660 -0.5000 -0.0000
vn 1.0000 -0.0000 -0.0000
vn 0.5000 -0.8660 -0.0000
vn -0.5000 0.8660 -0.0000
vn -0.0000 1.0000 -0.0000
vn -0.8660 0.5000 -0.0000
vn -0.0000 -1.0000 -0.0000
vn -0.5000 -0.8660 -0.0000
vn 0.5000 0.8660 -0.0000
vn 0.8660 0.5000 -0.0000
vn -0.8660 -0.5000 -0.0000
vn -1.0000 -0.0000 -0.0000
vn -0.4025 -0.0000 0.9154
vn -0.3486 -0.2013 0.9154
vn -0.0812 -0.0469 0.9956
vn -0.0938 -0.0000 0.9956
vn 0.0469 0.0812 0.9956
vn -0.0000 0.0938 0.9956
vn -0.0469 0.0812 0.9956
vn -0.0812 0.0469 0.9956
vn -0.0469 -0.0812 0.9956
vn -0.0000 -0.0938 0.9956
vn 0.0469 -0.0812 0.9956
vn 0.0812 -0.0469 0.9956
vn 0.0938 -0.0000 0.9956
vn 0.0812 0.0469 0.9956
vn -0.2013 -0.3486 0.9154
vn -0.0000 -0.4025 0.9154
vn 0.2013 -0.3486 0.9154
vn 0.3486 -0.2013 0.9154
vn 0.4025 -0.0000 0.9154
vn -0.0000 0.4025 0.9154
vn -0.2013 0.3486 0.9154
vn 0.2013 0.3486 0.9154
vn 0.3486 0.2013 0.9154
vn -0.3486 0.2013 0.9154
vn -0.0000 -0.0000 -1.0000
vn -0.0000 0.5428 0.8399
vn 0.2714 0.4701 0.8399
vn 0.4701 0.2714 0.8399
vn 0.5428 -0.0000 0.8399
vn 0.4701 -0.2714 0.8399
vn 0.2714 -0.4701 0.8399
vn -0.0000 -0.5428 0.8399
vn -0.2714 -0.4701 0.8399
vn -0.4701 -0.2714 0.8399
vn -0.5428 -0.0000 0.8399
vn -0.4701 0.2714 0.8399
vn -0.2714 0.4701 0.8399
vt 0.666667 0.500000
vt 0.750000 0.500000
vt 0.166667 1.000000
vt 0.083333 1.000000
vt 0.583333 1.000000
vt 0.500000 1.000000
vt 0.083333 0.500000
vt 0.166667 0.500000
vt 0.500000 0.500000
vt 0.583333 0.500000
vt 1.000000 1.000000
vt 0.916667 1.000000
vt 0.416667 1.000000
vt 0.333333 1.000000
vt 0.833333 1.000000
vt 0.750000 1.000000
vt 0.916667 0.500000
vt 1.000000 0.500000
vt 0.333333 0.500000
vt 0.416667 0.500000
vt 0.250000 1.000000
vt 0.833333 0.500000
vt 0.370000 0.457846
vt 0.250000 0.490000
vt 0.130000 0.457846
vt 0.042154 0.370000
vt 0.010000 0.250000
vt 0.042154 0.130000
vt 0.130000 0.042154
vt 0.250000 0.010000
vt 0.370000 0.042154
vt 0.457846 0.130000
vt 0.490000 0.250000
vt 0.457846 0.370000
vt 0.666667 1.000000
vt 0.000000 1.000000
vt 0.750000 0.490000
vt 0.870000 0.457846
vt 0.957846 0.370000
vt 0.990000 0.250000
vt 0.957846 0.130000
vt 0.870000 0.042154
vt 0.750000 0.010000
vt 0.630000 0.042154
vt 0.542154 0.130000
vt 0.510000 0.250000
vt 0.542154 0.370000
vt 0.630000 0.457846
vt 0.000000 0.500000
vt 0.250000 0.500000
s 1
usemtl door
f 20/21/13 18/14/14 33/14/15 34/21/16
f 25/23/17 26/24/18 36/25/19 35/26/20 34/27/16 33/28/15 32/29/21 31/30/22 30/31/23 29/32/24 28/33/25 27/34/26
f 18/14/14 16/13/27 32/13/21 33/14/15
f 16/13/27 14/6/28 31/6/22 32/13/21
f 14/6/28 12/5/29 30/5/23 31/6/22
f 12/5/29 10/35/30 29/35/24 30/5/23
f 10/35/30 8/16/31 28/16/25 29/35/24
f 2/36/32 24/4/33 36/4/19 26/36/18
f 4/12/34 2/11/32 26/11/18 25/12/17
f 8/16/31 6/15/35 27/15/26 28/16/25
f 24/4/33 22/3/36 35/3/20 36/4/19
f 6/15/35 4/12/34 25/12/17 27/15/26
f 22/3/36 20/21/13 34/21/16 35/3/20
usemtl doorouter
f 9/1/1 7/2/2 55/2/2 57/1/1
f 22/3/1 24/4/3 72/4/3 70/3/1
f 12/5/4 14/6/5 62/6/5 60/5/4
f 23/7/4 21/8/6 69/8/6 71/7/4
f 13/9/7 11/10/3 59/10/3 61/9/7
f 2/11/7 4/12/8 51/12/8 52/11/7
f 16/13/9 18/14/10 66/14/10 64/13/9
f 6/15/11 8/16/12 56/16/12 54/15/11
f 3/17/9 1/18/5 49/18/5 50/17/9
f 17/19/11 15/20/8 63/20/8 65/19/11
f 7/2/2 5/22/10 53/22/10 55/2/2
f 20/21/2 22/3/1 70/3/1 68/21/2
f 9/1/1 11/10/3 42/10/3 41/1/1
f 37/37/37 38/38/37 39/39/37 40/40/37 41/41/37 42/42/37 43/43/37 44/44/37 45/45/37 46/46/37 47/47/37 48/48/37
f 7/2/2 9/1/1 41/1/1 40/2/2
f 23/7/4 1/49/5 37/49/5 48/7/4
f 1/18/5 3/17/9 38/17/9 37/18/5
f 5/22/10 7/2/2 40/2/2 39/22/10
f 21/8/6 23/7/4 48/7/4 47/8/6
f 3/17/9 5/22/10 39/22/10 38/17/9
f 19/50/12 21/8/6 47/8/6 46/50/12
f 17/19/11 19/50/12 46/50/12 45/19/11
f 15/20/8 17/19/11 45/19/11 44/20/8
f 13/9/7 15/20/8 44/20/8 43/9/7
f 11/10/3 13/9/7 43/9/7 42/10/3
f 49/18/38 52/11/38 51/12/39 50/17/39
f 50/17/39 51/12/39 54/15/40 53/22/40
f 53/22/40 54/15/40 56/16/41 55/2/41
f 55/2/41 56/16/41 58/35/42 57/1/42
f 57/1/42 58/35/42 60/5/43 59/10/43
f 59/10/43 60/5/43 62/6/44 61/9/44
f 61/9/44 62/6/44 64/13/45 63/20/45
f 63/20/45 64/13/45 66/14/46 65/19/46
f 65/19/46 66/14/46 68/21/47 67/50/47
f 67/50/47 68/21/47 70/3/48 69/8/48
f 69/8/48 70/3/48 72/4/49 71/7/49
f 71/7/49 72/4/49 52/36/38 49/49/38
f 19/50/12 17/19/11 65/19/11 67/50/12
f 8/16/12 10/35/6 58/35/6 56/16/12
f 18/14/10 20/21/2 68/21/2 66/14/10
f 5/22/10 3/17/9 50/17/9 53/22/10
f 15/20/8 13/9/7 61/9/7 63/20/8
f 1/49/5 23/7/4 71/7/4 49/49/5
f 4/12/8 6/15/11 54/15/11 51/12/8
f 14/6/5 16/13/9 64/13/9 62/6/5
f 24/4/3 2/36/7 52/36/7 72/4/3
f 11/10/3 9/1/1 57/1/1 59/10/3
f 21/8/6 19/50/12 67/50/12 69/8/6
f 10/35/6 12/5/4 60/5/4 58/35/6
o Cube
v -0.201443 -0.154095 0.183053
v 0.154095 0.201443 0.183053
v -0.201443 -0.154095 0.116093
v 0.154095 0.201443 0.116093
v -0.154095 -0.201443 0.183053
v 0.201443 0.154095 0.183053
v -0.154095 -0.201443 0.116093
v 0.201443 0.154095 0.116093
vn -0.5641 0.4315 0.7040
vn -0.4315 0.5641 0.7040
vn -0.5641 0.4315 -0.7040
vn -0.4315 0.5641 -0.7040
vn 0.4315 -0.5641 0.7040
vn 0.5641 -0.4315 0.7040
vn 0.4315 -0.5641 -0.7040
vn 0.5641 -0.4315 -0.7040
vt 0.375000 0.000000
vt 0.625000 0.000000
vt 0.625000 0.250000
vt 0.375000 0.250000
vt 0.625000 0.500000
vt 0.375000 0.500000
vt 0.625000 0.750000
vt 0.375000 0.750000
vt 0.625000 1.000000
vt 0.375000 1.000000
vt 0.125000 0.500000
vt 0.125000 0.750000
vt 0.875000 0.500000
vt 0.875000 0.750000
s 1
usemtl turner
f 73/51/50 74/52/51 76/53/53 75/54/52
f 75/54/52 76/53/53 80/55/57 79/56/56
f 79/56/56 80/55/57 78/57/55 77/58/54
f 77/58/54 78/57/55 74/59/51 73/60/50
f 75/61/52 79/56/56 77/58/54 73/62/50
f 80/55/57 76/63/53 74/64/51 78/57/55
o Torus.001
v 0.355483 0.000000 0.141878
v 0.296236 -0.000000 0.201125
v 0.236989 -0.000000 0.141878
v 0.296236 0.000000 0.082631
v 0.251364 0.251365 0.141878
v 0.209470 0.209470 0.201125
v 0.167576 0.167576 0.141878
v 0.209470 0.209470 0.082631
v 0.000000 0.355483 0.141878
v 0.000000 0.296236 0.201125
v 0.000000 0.236989 0.141878
v 0.000000 0.296236 0.082631
v -0.251365 0.251364 0.141878
v -0.209470 0.209470 0.201125
v -0.167576 0.167576 0.141878
v -0.209470 0.209470 0.082631
v -0.355483 0.000000 0.141878
v -0.296236 0.000000 0.201125
v -0.236989 0.000000 0.141878
v -0.296236 0.000000 0.082631
v -0.251365 -0.251364 0.141878
v -0.209470 -0.209470 0.201125
v -0.167576 -0.167576 0.141878
v -0.209470 -0.209470 0.082631
v 0.000000 -0.355483 0.141878
v 0.000000 -0.296236 0.201125
v 0.000000 -0.236989 0.141878
v 0.000000 -0.296236 0.082631
v 0.251364 -0.251365 0.141878
v 0.209470 -0.209471 0.201125
v 0.167576 -0.167576 0.141878
v 0.209470 -0.209471 0.082631
vn 1.0000 -0.0000 -0.0000
vn 0.1719 -0.0000 0.9851
vn -1.0000 -0.0000 -0.0000
vn 0.1719 -0.0000 -0.9851
vn 0.7071 0.7071 -0.0000
vn 0.1215 0.1215 0.9851
vn -0.7071 -0.7071 -0.0000
vn 0.1215 0.1215 -0.9851
vn -0.0000 1.0000 -0.0000
vn -0.0000 0.1719 0.9851
vn -0.0000 -1.0000 -0.0000
vn -0.0000 0.1719 -0.9851
vn -0.7071 0.7071 -0.0000
vn -0.1215 0.1215 0.9851
vn 0.7071 -0.7071 -0.0000
vn -0.1215 0.1215 -0.9851
vn -0.1719 -0.0000 0.9851
vn -0.1719 -0.0000 -0.9851
vn -0.1215 -0.1215 0.9851
vn -0.1215 -0.1215 -0.9851
vn -0.0000 -0.1719 0.9851
vn -0.0000 -0.1719 -0.9851
vn 0.1215 -0.1215 0.9851
vn 0.1215 -0.1215 -0.9851
vt 0.500000 0.500000
vt 0.625000 0.500000
vt 0.625000 0.750000
vt 0.500000 0.750000
vt 0.625000 1.000000
vt 0.500000 1.000000
vt 0.500000 0.000000
vt 0.625000 0.000000
vt 0.625000 0.250000
vt 0.500000 0.250000
vt 0.750000 0.500000
vt 0.750000 0.750000
vt 0.750000 1.000000
vt 0.750000 0.000000
vt 0.750000 0.250000
vt 0.875000 0.500000
vt 0.875000 0.750000
vt 0.875000 1.000000
vt 0.875000 0.000000
vt 0.875000 0.250000
vt 1.000000 0.500000
vt 1.000000 0.750000
vt 1.000000 1.000000
vt 1.000000 0.000000
vt 1.000000 0.250000
vt 0.000000 0.500000
vt 0.125000 0.500000
vt 0.125000 0.750000
vt 0.000000 0.750000
vt 0.125000 1.000000
vt 0.000000 1.000000
vt 0.000000 0.000000
vt 0.125000 0.000000
vt 0.125000 0.250000
vt 0.000000 0.250000
vt 0.250000 0.500000
vt 0.250000 0.750000
vt 0.250000 1.000000
vt 0.250000 0.000000
vt 0.250000 0.250000
vt 0.375000 0.500000
vt 0.375000 0.750000
vt 0.375000 1.000000
vt 0.375000 0.000000
vt 0.375000 0.250000
s 1
usemtl turner
f 81/65/58 85/66/62 86/67/63 82/68/59
f 82/68/59 86/67/63 87/69/64 83/70/60
f 83/71/60 87/72/64 88/73/65 84/74/61
f 84/74/61 88/73/65 85/66/62 81/65/58
f 85/66/62 89/75/66 90/76/67 86/67/63
f 86/67/63 90/76/67 91/77/68 87/69/64
f 87/72/64 91/78/68 92/79/69 88/73/65
f 88/73/65 92/79/69 89/75/66 85/66/62
f 89/75/66 93/80/70 94/81/71 90/76/67
f 90/76/67 94/81/71 95/82/72 91/77/68
f 91/78/68 95/83/72 96/84/73 92/79/69
f 92/79/69 96/84/73 93/80/70 89/75/66
f 93/80/70 97/85/60 98/86/74 94/81/71
f 94/81/71 98/86/74 99/87/58 95/82/72
f 95/83/72 99/88/58 100/89/75 96/84/73
f 96/84/73 100/89/75 97/85/60 93/80/70
f 97/90/60 101/91/64 102/92/76 98/93/74
f 98/93/74 102/92/76 103/94/62 99/95/58
f 99/96/58 103/97/62 104/98/77 100/99/75
f 100/99/75 104/98/77 101/91/64 97/90/60
f 101/91/64 105/100/68 106/101/78 102/92/76
f 102/92/76 106/101/78 107/102/66 103/94/62
f 103/97/62 107/103/66 108/104/79 104/98/77
f 104/98/77 108/104/79 105/100/68 101/91/64
f 105/100/68 109/105/72 110/106/80 106/101/78
f 106/101/78 110/106/80 111/107/70 107/102/66
f 107/103/66 111/108/70 112/109/81 108/104/79
f 108/104/79 112/109/81 109/105/72 105/100/68
f 109/105/72 81/65/58 82/68/59 110/106/80
f 110/106/80 82/68/59 83/70/60 111/107/70
f 111/108/70 83/71/60 84/74/61 112/109/81
f 112/109/81 84/74/61 81/65/58 109/105/72
o Cube.001
v 0.154095 -0.201443 0.183053
v -0.201443 0.154095 0.183053
v 0.154095 -0.201443 0.116093
v -0.201443 0.154095 0.116093
v 0.201443 -0.154095 0.183053
v -0.154095 0.201443 0.183053
v 0.201443 -0.154095 0.116093
v -0.154095 0.201443 0.116093
v 0.000000 -0.047348 0.183053
v -0.047348 0.000000 0.183053
v 0.000000 -0.047348 0.116093
v -0.047348 0.000000 0.116093
v 0.047348 0.000000 0.116093
v -0.000000 0.047348 0.116093
v 0.047348 0.000000 0.183053
v -0.000000 0.047348 0.183053
vn -0.4315 -0.5641 0.7040
vn -0.5641 -0.4315 0.7040
vn -0.4315 -0.5641 -0.7040
vn -0.5641 -0.4315 -0.7040
vn 0.5641 0.4315 0.7040
vn 0.4315 0.5641 0.7040
vn 0.5641 0.4315 -0.7040
vn 0.4315 0.5641 -0.7040
vt 0.516647 0.000000
vt 0.625000 0.000000
vt 0.625000 0.250000
vt 0.516647 0.250000
vt 0.375000 0.250000
vt 0.375000 0.000000
vt 0.483353 0.000000
vt 0.483353 0.250000
vt 0.625000 0.500000
vt 0.516647 0.500000
vt 0.375000 0.500000
vt 0.483353 0.500000
vt 0.625000 0.750000
vt 0.516647 0.750000
vt 0.483353 0.750000
vt 0.375000 0.750000
vt 0.625000 1.000000
vt 0.516647 1.000000
vt 0.483353 1.000000
vt 0.375000 1.000000
vt 0.125000 0.500000
vt 0.125000 0.750000
vt 0.875000 0.500000
vt 0.875000 0.750000
s 1
usemtl turner
f 122/110/82 114/111/83 116/112/85 124/113/84
f 115/114/84 113/115/82 121/116/83 123/117/85
f 116/112/85 120/118/89 126/119/88 124/113/84
f 119/120/88 115/114/84 123/117/85 125/121/89
f 126/119/88 120/118/89 118/122/87 128/123/86
f 127/124/87 117/125/86 119/120/88 125/121/89
f 128/123/86 118/122/87 114/126/83 122/127/82
f 121/128/83 113/129/82 117/125/86 127/124/87
f 115/130/84 119/120/88 117/125/86 113/131/82
f 120/118/89 116/132/85 114/133/83 118/122/87
f 122/115/82 124/114/84 126/114/88 128/115/86
f 127/125/87 125/120/89 123/120/85 121/125/83
